<?xml version="1.0" encoding="UTF-8"?>
<svg id="Layer_2" data-name="Layer 2" xmlns="http://www.w3.org/2000/svg" viewBox="0 0 224.87 216">
  <defs>
    <style>
      .cls-1 {
        fill: #c08e2c;
        opacity: .58;
      }

      .cls-2 {
        fill: #e9e9ea;
      }

      .cls-3 {
        fill: #dcddde;
      }

      .cls-4 {
        fill: #f1f2f2;
      }

      .cls-5 {
        fill: #e1ad3b;
      }

      .cls-6 {
        fill: #fff;
      }

      .cls-7 {
        fill: #e2e3e4;
      }

      .cls-8 {
        fill: #e6e7e8;
      }

      .cls-9 {
        fill: #f2ca5d;
      }
    </style>
  </defs>
  <g id="Layer_6" data-name="Layer 6">
    <g>
      <path class="cls-3" d="M146.59,8.01s19.29,5.74,43.02,24.77c13.44,10.78,27.38,31.91,31.02,43.28,6.52,20.34,5.47,43.02-2.87,62.05-9.35,21.33-24.92,33.25-37.89,45.45-8.78,8.26-22.59,19.47-40.32,26.51-21.43,8.51-44.58,7.3-66.48,0-24.09-8.03-48.49-22.57-62.05-46.67C-.71,142.54.33,118.29.33,118.29l76.78,77.87,83.92-19.86,42.46-49.91s-42.61-89.6-43.48-90.48c-8.47-8.6-13.43-27.9-13.43-27.9Z"/>
      <path class="cls-3" d="M134.21,5.02c-11.17-3.78-20.57-4.12-31.25-3.48-8.55.51-25.45,3.28-36.67,9.58,9.43-2.36,25.45-5.29,38.04-5.47,11.87-.17,27.14,7.2,29.88-.63Z"/>
      <path class="cls-4" d="M217.51,99.52c.52,25.29-9.12,49.8-32.07,70.13-19.56,17.33-35.55,31.77-59.96,37.28-32.33,7.3-64.77-4.74-89.16-23.72C14.1,165.92,3.98,149.32.7,123.06c-2.94-23.48,3.81-41.01,13.18-60.29,6.33-13.02,12.06-23.45,22.96-33.25,5.15-4.64,11.6-9,19.55-13.69,23.93-14.1,67.4-17.25,101.06.67,30.08,16.01,59.23,42.61,60.06,83.02Z"/>
      <ellipse class="cls-3" cx="137.98" cy="11.52" rx="11.79" ry="11.52"/>
      <circle class="cls-4" cx="136.21" cy="12.72" r="10.11"/>
      <path class="cls-2" d="M68.8,22.52c.72,2.37-3.26,5.13-9.36,9.28-7.21,4.9-13.9,10.54-20.54,20.63-6.19,9.39-8.92,15.84-12.85,15.14s-.2-8.98,4.84-17.68c5.32-9.17,11.02-15.98,24.38-24.27,9.14-5.67,12.81-5.46,13.53-3.1Z"/>
      <path class="cls-6" d="M66.2,21.68c.47,1.36-2.94,3.52-9.32,7.72-7.82,5.15-15.57,12.52-21.12,20.72-6.93,10.24-8.02,16.1-10.65,15.37-3.57-.99.59-9.42,5.49-17.72,5.16-8.75,10.48-14.36,18.1-19.89s16.4-9.37,17.5-6.21Z"/>
      <circle class="cls-2" cx="20.66" cy="77.99" r="5.17"/>
      <circle class="cls-6" cx="19.47" cy="77.28" r="3.86"/>
      <circle class="cls-2" cx="134.97" cy="11.56" r="4.29"/>
      <circle class="cls-7" cx="49.55" cy="176.82" r="7.43"/>
      <circle class="cls-4" cx="48.44" cy="175.06" r="5.74"/>
      <circle class="cls-3" cx="120.52" cy="201.07" r="10.99"/>
      <circle class="cls-4" cx="118.13" cy="199.19" r="8.35"/>
      <circle class="cls-6" cx="116.61" cy="197.38" r="3.52"/>
      <circle class="cls-7" cx="139.81" cy="188.73" r="8.39"/>
      <circle class="cls-4" cx="137.99" cy="187.3" r="6.37"/>
      <circle class="cls-6" cx="136.83" cy="185.91" r="2.68"/>
      <circle class="cls-6" cx="47.69" cy="173.63" r="2.68"/>
      <circle class="cls-3" cx="208.38" cy="81.32" r="8.39"/>
      <circle class="cls-4" cx="206.27" cy="80.36" r="6.37"/>
      <circle class="cls-6" cx="204.81" cy="79.3" r="2.68"/>
      <circle class="cls-6" cx="106.31" cy="100.57" r="66.95"/>
      <circle class="cls-5" cx="111.31" cy="105.57" r="66.95"/>
      <path class="cls-1" d="M153.92,53.93c11.79,12.07,19.05,28.57,19.05,46.77,0,36.97-29.97,66.95-66.95,66.95-16.19,0-31.03-5.75-42.61-15.31,12.16,12.45,29.12,20.18,47.89,20.18,36.98,0,66.95-29.97,66.95-66.95,0-20.79-9.47-39.36-24.34-51.64Z"/>
      <path class="cls-9" d="M108.97,104.28c-12.49,12.49-32.95,12.91-41.56,5.72-10.12-8.45-9.44-30.37,1.43-44.29,10.6-13.57,30.48-17.98,43.46-5.72s9.53,31.43-3.33,44.29Z"/>
      <path class="cls-8" d="M124.95,59.43c1.26-4.48,5.82-5.43,10.25-3.22,3.43,1.71,3.69,5.51,3.69,7.07s-.22,12.47-.13,15.9c.07,2.61.13,31.15.35,41.29.2,9.4.65,22.21.78,23.64.35,3.87-.74,7.29-3.26,9.08-2.36,1.68-5.82,2.64-8.62,1.4-3.64-1.61-3.02-5.61-2.89-10.18s.48-17.12.56-25.16.17-41.89-.22-48.97c-.24-4.43-1.23-8.34-.52-10.86Z"/>
      <path class="cls-6" d="M87.8,62.35c1.3-4.46,6.13-5.45,10.55-3.2,3.41,1.74,3.56,5.62,3.54,7.19s.02,12.21,0,15.64c-.03,4.04-.26,30.24-.18,41.47.07,9.4.46,22.21.58,23.64.31,3.87-.68,7.46-3.34,9.05-2.01,1.21-6.63,1.58-9.1-.22-3.09-2.24-2.47-8.19-2.3-12.75s.59-13.02.75-21.05c.15-7.96,0-40.51-.33-47.6-.21-4.43-.89-9.66-.16-12.17Z"/>
      <path class="cls-8" d="M101.7,123.45c-.02-3.48-.02-8.4,0-13.66-4.24,2.41-8.85,3.89-13.36,4.53,0,3.37-.03,6.12-.06,7.79-.16,8.04-.58,16.49-.75,21.05s-.79,10.51,2.3,12.75c2.48,1.8,7.09,1.43,9.1.22,2.65-1.59,3.65-5.18,3.34-9.05-.12-1.43-.51-14.24-.58-23.64Z"/>
      <circle class="cls-6" cx="133.73" cy="10.88" r="3.15"/>
    </g>
  </g>
</svg>